<svg version="1.1" xmlns="http://www.w3.org/2000/svg" width="200" height="38" viewBox="0 0 354 68"><path d="M0 0 C6.18138568 4.76321241 8.8432213 10.32414198 10.25390625 17.83203125 C10.45052767 20.50681819 10.57674127 23.08935172 10.59765625 25.76171875 C10.61227905 26.47812531 10.62690186 27.19453186 10.64196777 27.93264771 C10.70367577 30.96208839 10.744097 33.99171024 10.78564453 37.02148438 C10.81927333 39.24761634 10.86435552 41.47330942 10.91015625 43.69921875 C10.91543335 44.38563446 10.92071045 45.07205017 10.92614746 45.77926636 C10.91310592 49.74904385 10.91310592 49.74904385 13.25390625 52.83203125 C15.79342169 52.74091187 15.79342169 52.74091187 18.25390625 51.83203125 C20.26800185 48.81088785 20.52227221 48.02543108 20.66796875 44.6015625 C20.70664063 43.79912109 20.7453125 42.99667969 20.78515625 42.16992188 C20.81609375 41.33654297 20.84703125 40.50316406 20.87890625 39.64453125 C20.91757813 38.79955078 20.95625 37.95457031 20.99609375 37.08398438 C21.09026904 35.00035601 21.173173 32.91622372 21.25390625 30.83203125 C24.55390625 30.83203125 27.85390625 30.83203125 31.25390625 30.83203125 C31.25390625 41.39203125 31.25390625 51.95203125 31.25390625 62.83203125 C22.25390625 62.83203125 22.25390625 62.83203125 19.25390625 61.83203125 C18.26390625 62.32703125 18.26390625 62.32703125 17.25390625 62.83203125 C12.61086438 63.39848236 9.12877508 63.25326439 4.87890625 61.20703125 C0.85876704 57.56976244 -0.60216148 54.35003566 -1.11499023 48.94140625 C-1.12925982 47.48835113 -1.12931828 46.0351058 -1.1171875 44.58203125 C-1.13456438 42.98827904 -1.15214882 41.39452909 -1.16992188 39.80078125 C-1.17999506 37.31245836 -1.18358844 34.82427996 -1.18188477 32.3359375 C-1.18546652 29.91753941 -1.21284145 27.50023381 -1.2421875 25.08203125 C-1.23400497 24.34436523 -1.22582245 23.60669922 -1.21739197 22.84667969 C-1.30900522 16.4480019 -3.6392955 12.9388295 -8.05859375 8.51953125 C-12.55546796 5.69591256 -16.21774374 5.54217177 -21.37109375 6.51953125 C-25.94334415 8.29762863 -28.67934773 10.18164289 -31.35473633 14.32080078 C-33.22301445 19.03558864 -33.22410999 23.23343109 -33.2578125 28.26171875 C-33.2757637 29.25205109 -33.2937149 30.24238342 -33.31221008 31.26272583 C-33.36618276 34.41078496 -33.40016731 37.55869358 -33.43359375 40.70703125 C-33.46677829 42.84767713 -33.501269 44.98830319 -33.53710938 47.12890625 C-33.62190195 52.36317245 -33.68877559 57.59739501 -33.74609375 62.83203125 C-37.04609375 62.83203125 -40.34609375 62.83203125 -43.74609375 62.83203125 C-43.82044202 56.12429204 -43.87479022 49.41679456 -43.91088867 42.70874023 C-43.92594293 40.42842427 -43.94639083 38.14813711 -43.97241211 35.86791992 C-44.00894269 32.58374916 -44.02585414 29.2999624 -44.0390625 26.015625 C-44.05454636 25.00181259 -44.07003021 23.98800018 -44.08598328 22.94346619 C-44.08798605 14.45424174 -42.06532934 8.62883228 -36.74609375 1.83203125 C-26.20530699 -7.68359171 -11.51351798 -7.70143596 0 0 Z " fill="#DCDCDF" transform="translate(43.74609375,5.16796875)" /><path d="M0 0 C3.15706154 0.9969668 4.55660431 -0.16496586 7.4140625 -1.5625 C11.11848119 -2.86126034 14.65181064 -2.25588981 18.375 -1.25 C22.26397832 0.81860549 23.1591766 2.06781694 24.4921875 6.28125 C25.60436557 11.0912152 25.63462266 15.77177141 25.5625 20.6875 C25.56185547 21.54923828 25.56121094 22.41097656 25.56054688 23.29882812 C25.51579241 29.60920759 25.51579241 29.60920759 24.375 30.75 C22.87761876 30.8479057 21.37557108 30.87974864 19.875 30.875 C19.0603125 30.87757812 18.245625 30.88015625 17.40625 30.8828125 C15.375 30.75 15.375 30.75 14.375 29.75 C14.21844973 28.26361008 14.12433057 26.77050873 14.05859375 25.27734375 C14.01669922 24.37822266 13.97480469 23.47910156 13.93164062 22.55273438 C13.89232422 21.60720703 13.85300781 20.66167969 13.8125 19.6875 C13.76931641 18.73810547 13.72613281 17.78871094 13.68164062 16.81054688 C13.57520724 14.45718647 13.47318992 12.10371646 13.375 9.75 C11.59271064 8.60790183 11.59271064 8.60790183 9.375 7.75 C8.055 8.08 6.735 8.41 5.375 8.75 C5.045 16.01 4.715 23.27 4.375 30.75 C1.075 30.75 -2.225 30.75 -5.625 30.75 C-7.20903524 29.16596476 -6.84474935 27.4728362 -6.94140625 25.27734375 C-6.98330078 24.37822266 -7.02519531 23.47910156 -7.06835938 22.55273438 C-7.10767578 21.60720703 -7.14699219 20.66167969 -7.1875 19.6875 C-7.23068359 18.73810547 -7.27386719 17.78871094 -7.31835938 16.81054688 C-7.42479276 14.45718647 -7.52681008 12.10371646 -7.625 9.75 C-8.945 9.09 -10.265 8.43 -11.625 7.75 C-14.77470945 9.65662003 -14.77470945 9.65662003 -16.17089844 12.92651367 C-16.1918457 13.74869385 -16.21279297 14.57087402 -16.234375 15.41796875 C-16.26660156 16.31064453 -16.29882812 17.20332031 -16.33203125 18.12304688 C-16.35330078 19.51620117 -16.35330078 19.51620117 -16.375 20.9375 C-16.40464844 21.87787109 -16.43429688 22.81824219 -16.46484375 23.78710938 C-16.53553562 26.10815916 -16.58823165 28.42820535 -16.625 30.75 C-18.27074566 30.77688151 -19.91661413 30.79634123 -21.5625 30.8125 C-22.47902344 30.82410156 -23.39554688 30.83570313 -24.33984375 30.84765625 C-26.625 30.75 -26.625 30.75 -27.625 29.75 C-27.71290975 27.45848583 -27.73194038 25.16427476 -27.72265625 22.87109375 C-27.7212413 22.1844313 -27.71982635 21.49776886 -27.71836853 20.79029846 C-27.71275479 18.58932199 -27.70020007 16.38844591 -27.6875 14.1875 C-27.68248676 12.69856917 -27.67792355 11.20963676 -27.67382812 9.72070312 C-27.66278093 6.06376925 -27.64550713 2.40689442 -27.625 -1.25 C-23.29166667 -1.25 -18.95833333 -1.25 -14.625 -1.25 C-9.78166492 -2.86444503 -4.59978259 -2.19037266 0 0 Z " fill="#EEEEEF" transform="translate(245.625,37.25)" /><path d="M0 0 C3.41792814 2.84827345 5.2188576 4.96907279 6.625 9.1875 C6.625 11.8275 6.625 14.4675 6.625 17.1875 C-3.77 17.6825 -3.77 17.6825 -14.375 18.1875 C-12.39598498 20.61419463 -12.39598498 20.61419463 -8.5625 20.375 C-6.01487997 20.33353783 -4.10744485 20.11453041 -1.625 19.4375 C0.625 19.1875 0.625 19.1875 3 20.875 C4.625 23.1875 4.625 23.1875 4.8125 25.25 C2.8645215 28.42828071 0.09127803 29.34072909 -3.375 30.1875 C-10.52542361 31.06935016 -16.43488393 30.4492049 -22.375 26.1875 C-26.48519183 21.94472134 -26.67365483 17.10481005 -26.58984375 11.43359375 C-26.15349721 6.87178897 -24.28282607 4.07079023 -21.0625 0.9375 C-14.08334607 -3.60706535 -7.31422046 -3.92800728 0 0 Z M-13.375 6.1875 C-14.035 7.5075 -14.695 8.8275 -15.375 10.1875 C-11.745 10.1875 -8.115 10.1875 -4.375 10.1875 C-5.035 8.8675 -5.695 7.5475 -6.375 6.1875 C-8.685 6.1875 -10.995 6.1875 -13.375 6.1875 Z " fill="#D7D7DA" transform="translate(347.375,37.8125)" /><path d="M0 0 C5.04680975 5.65854426 4.30726156 12.54786858 4.1875 19.6875 C4.17847656 20.70972656 4.16945312 21.73195313 4.16015625 22.78515625 C4.1367043 25.29451522 4.10388355 27.80338336 4.0625 30.3125 C2.41675434 30.33938151 0.77088587 30.35884123 -0.875 30.375 C-1.79152344 30.38660156 -2.70804688 30.39820313 -3.65234375 30.41015625 C-5.9375 30.3125 -5.9375 30.3125 -6.9375 29.3125 C-7.09405027 27.82611008 -7.18816943 26.33300873 -7.25390625 24.83984375 C-7.29580078 23.94072266 -7.33769531 23.04160156 -7.38085938 22.11523438 C-7.42017578 21.16970703 -7.45949219 20.22417969 -7.5 19.25 C-7.54318359 18.30060547 -7.58636719 17.35121094 -7.63085938 16.37304688 C-7.73729276 14.01968647 -7.83931008 11.66621646 -7.9375 9.3125 C-9.5875 8.6525 -11.2375 7.9925 -12.9375 7.3125 C-15.36761696 9.04274328 -16.76420338 10.44921131 -17.36132812 13.42382812 C-17.55563817 15.9744032 -17.64594385 18.50490776 -17.6875 21.0625 C-17.71714844 21.95066406 -17.74679688 22.83882812 -17.77734375 23.75390625 C-17.84785061 25.93961897 -17.89496234 28.12606411 -17.9375 30.3125 C-21.2375 30.3125 -24.5375 30.3125 -27.9375 30.3125 C-27.9375 19.7525 -27.9375 9.1925 -27.9375 -1.6875 C-23.9375 -1.6875 -19.9375 -1.6875 -15.9375 -1.6875 C-15.30714844 -1.85636719 -14.67679688 -2.02523437 -14.02734375 -2.19921875 C-9.12280196 -3.34513973 -4.31273011 -2.47752581 0 0 Z " fill="#E3E3E6" transform="translate(171.9375,37.6875)" /><path d="M0 0 C4.00226908 5.05549779 4.42712157 8.98691423 4.3359375 15.3515625 C3.97745147 18.17776633 3.16785836 20.41202587 2 23 C1.34 23 0.68 23 0 23 C-0.33 23.99 -0.66 24.98 -1 26 C-6.56127658 29.19477591 -11.65308486 29.75658591 -18 29 C-23.67458978 27.07278083 -27.32050871 23.35898258 -30 18 C-30.75984417 12.28674132 -30.8408215 7.37089964 -27.5 2.5 C-20.47297861 -5.49569957 -8.63425254 -6.16732324 0 0 Z M-17.8125 7.6875 C-20.22540979 10.70376733 -20.22540979 10.70376733 -20.0625 13.625 C-18.72666497 16.61098418 -17.72053348 18.13858235 -15 20 C-11.37350049 20.08916154 -11.37350049 20.08916154 -8 19 C-5.65450326 15.48175489 -5.42008597 14.14224306 -6 10 C-8.1255155 7.04089856 -8.1255155 7.04089856 -11 5 C-15.1663548 4.53942815 -15.1663548 4.53942815 -17.8125 7.6875 Z " fill="#D9D9DC" transform="translate(135,39)" /><path d="M0 0 C3.8613762 3.40168856 6.29847777 5.88690628 7.0078125 11.15625 C7.18337207 15.88465444 7.0009833 19.43520564 5.125 23.8125 C0.53986797 28.39763203 -3.91990865 30.51489309 -10.4375 30.8125 C-15.48063334 30.58784429 -18.32564113 29.30902556 -22.375 26.3125 C-27.05125411 21.14400862 -27.73285073 17.91731238 -27.65234375 11.07421875 C-27.2610997 7.17830964 -26.01996521 5.16627825 -23.375 2.3125 C-16.02295363 -3.35470241 -8.42172365 -4.21086182 0 0 Z M-14.5625 7.4375 C-17.06260649 10.02381706 -17.30365866 11.74543308 -17.375 15.3125 C-16.23720128 17.63981556 -15.20659286 19.48090714 -13.375 21.3125 C-9.27069724 21.70160922 -9.27069724 21.70160922 -5.5625 20.1875 C-3.89391223 17.55288773 -3.56473263 15.41146635 -3.375 12.3125 C-4.49518899 8.95193304 -5.32034099 8.34893934 -8.375 6.3125 C-12.19211373 6.00760132 -12.19211373 6.00760132 -14.5625 7.4375 Z " fill="#DADADD" transform="translate(207.375,37.6875)" /><path d="M0 0 C8.91 0 17.82 0 27 0 C27 2.64 27 5.28 27 8 C26.34 8 25.68 8 25 8 C24.63261719 8.82757813 24.63261719 8.82757813 24.2578125 9.671875 C22.74261886 12.47639491 20.88915874 14.78103123 18.875 17.25 C18.15054687 18.14203125 17.42609375 19.0340625 16.6796875 19.953125 C16.12539063 20.62859375 15.57109375 21.3040625 15 22 C18.96 22.33 22.92 22.66 27 23 C27 25.97 27 28.94 27 32 C22.52084672 32.02886338 18.04171709 32.04675187 13.5625 32.0625 C12.28310547 32.07087891 11.00371094 32.07925781 9.68554688 32.08789062 C8.47060547 32.09111328 7.25566406 32.09433594 6.00390625 32.09765625 C4.87799072 32.10289307 3.7520752 32.10812988 2.59204102 32.11352539 C0 32 0 32 -1 31 C-1.38103021 27.42339647 -1.32977689 25.53680804 0.57421875 22.4375 C1.27160156 21.633125 1.96898437 20.82875 2.6875 20 C3.41324219 19.14664063 4.13898438 18.29328125 4.88671875 17.4140625 C5.58410156 16.61742188 6.28148437 15.82078125 7 15 C8.00316636 13.79429411 9.00382398 12.58648784 10 11.375 C10.66 10.59125 11.32 9.8075 12 9 C8.04 8.67 4.08 8.34 0 8 C0 5.36 0 2.72 0 0 Z " fill="#E6E6E8" transform="translate(292,36)" /><path d="M0 0 C2.31 0.66 4.62 1.32 7 2 C11.42079945 2.51211987 15.1086654 2.30597606 19 0 C19.99 0 20.98 0 22 0 C22 9.24 22 18.48 22 28 C14.74 28 7.48 28 0 28 C0 18.76 0 9.52 0 0 Z " fill="#CE9B51" transform="translate(16,40)" /><path d="M0 0 C3.3 0 6.6 0 10 0 C10 2.64 10 5.28 10 8 C12.64 8 15.28 8 18 8 C18 10.64 18 13.28 18 16 C15.36 16 12.72 16 10 16 C10.33 20.62 10.66 25.24 11 30 C13.31 30 15.62 30 18 30 C18.33 32.64 18.66 35.28 19 38 C15.29460158 39.85269921 11.04376687 39.46444489 7 39 C3.88673375 37.68882399 1.54695424 36.09390848 0 33 C-0.07194869 30.11629667 -0.09291708 27.25760336 -0.0625 24.375 C-0.05798828 23.57320312 -0.05347656 22.77140625 -0.04882812 21.9453125 C-0.03703168 19.96350994 -0.01909605 17.98174567 0 16 C-1.65 16 -3.3 16 -5 16 C-5 13.36 -5 10.72 -5 8 C-3.35 8 -1.7 8 0 8 C0 5.36 0 2.72 0 0 Z " fill="#DCDCDF" transform="translate(84,29)" /><path d="M0 0 C2.82424288 2.19022918 4.41508603 3.83017207 6 7 C6.37593152 11.98109259 6.1765161 15.05673864 3 19 C-0.93461624 22.16955197 -4.02077887 22.53348798 -9 22 C-12.5386994 20.34860695 -13.81070153 19.28394771 -16 16 C-16.71207438 11.11483856 -16.72852643 7.1899265 -14.125 2.9375 C-9.95404903 -0.86542588 -5.43800871 -0.78663019 0 0 Z " fill="#D19E52" transform="translate(32,16)" /><path d="M0 0 C3.3 0 6.6 0 10 0 C10 10.56 10 21.12 10 32 C6.7 32 3.4 32 0 32 C0 21.44 0 10.88 0 0 Z " fill="#DEDEE1" transform="translate(277,36)" /><path d="M0 0 C3.3 0 6.6 0 10 0 C10 0.33 10 0.66 10 1 C7.36 1 4.72 1 2 1 C2 10.57 2 20.14 2 30 C4.64 30 7.28 30 10 30 C10 24.06 10 18.12 10 12 C10.33 12 10.66 12 11 12 C11 18.6 11 25.2 11 32 C7.7 32 4.4 32 1 32 C0 31 0 31 -0.11352539 28.04077148 C-0.10828857 26.74727783 -0.10305176 25.45378418 -0.09765625 24.12109375 C-0.0962413 23.4344313 -0.09482635 22.74776886 -0.09336853 22.04029846 C-0.08775479 19.83932199 -0.07520007 17.63844591 -0.0625 15.4375 C-0.05748676 13.94856917 -0.05292355 12.45963676 -0.04882812 10.97070312 C-0.03778093 7.31376925 -0.02050713 3.65689442 0 0 Z " fill="#726E7D" transform="translate(218,36)" /><path d="M0 0 C1.92870117 3.85740233 2.24283376 5.11629643 2.1953125 9.203125 C2.18564453 10.67265625 2.18564453 10.67265625 2.17578125 12.171875 C2.15902344 13.18765625 2.14226562 14.2034375 2.125 15.25 C2.11597656 16.28125 2.10695312 17.3125 2.09765625 18.375 C2.07412011 20.91690287 2.04124023 23.4583328 2 26 C0.35425434 26.02688151 -1.29161413 26.04634123 -2.9375 26.0625 C-3.85402344 26.07410156 -4.77054688 26.08570312 -5.71484375 26.09765625 C-8 26 -8 26 -9 25 C-9.08669432 23.5112814 -9.10703494 22.018555 -9.09765625 20.52734375 C-9.09443359 19.62822266 -9.09121094 18.72910156 -9.08789062 17.80273438 C-9.07951172 16.85720703 -9.07113281 15.91167969 -9.0625 14.9375 C-9.05798828 13.98810547 -9.05347656 13.03871094 -9.04882812 12.06054688 C-9.0370011 9.70696935 -9.02052025 7.35351523 -9 5 C-8.01 5.495 -8.01 5.495 -7 6 C-7 11.94 -7 17.88 -7 24 C-4.69 24 -2.38 24 0 24 C0 16.08 0 8.16 0 0 Z " fill="#7D7D88" transform="translate(174,42)" /><path d="M0 0 C0 0.99 0 1.98 0 3 C3.96 3.33 7.92 3.66 12 4 C12 6.97 12 9.94 12 13 C7.52084672 13.02886338 3.04171709 13.04675187 -1.4375 13.0625 C-2.71689453 13.07087891 -3.99628906 13.07925781 -5.31445312 13.08789062 C-7.13686523 13.09272461 -7.13686523 13.09272461 -8.99609375 13.09765625 C-10.12200928 13.10289307 -11.2479248 13.10812988 -12.40795898 13.11352539 C-15 13 -15 13 -16 12 C-16.47058824 6.58823529 -16.47058824 6.58823529 -14.5 4.125 C-14.005 3.75375 -13.51 3.3825 -13 3 C-13.33 5.64 -13.66 8.28 -14 11 C-5.75 11 2.5 11 11 11 C11 9.02 11 7.04 11 5 C6.05 5 1.1 5 -4 5 C-2.68 3.35 -1.36 1.7 0 0 Z " fill="#727280" transform="translate(307,55)" /><path d="M0 0 C2.4375 0.6875 2.4375 0.6875 4.4375 1.6875 C4.5625 7.4375 4.5625 7.4375 3.4375 9.6875 C0.7975 9.6875 -1.8425 9.6875 -4.5625 9.6875 C-5.95681504 6.89886993 -5.81910094 4.76671132 -5.5625 1.6875 C-2.5625 -0.3125 -2.5625 -0.3125 0 0 Z " fill="#C2C2C7" transform="translate(282.5625,22.3125)" /><path d="M0 0 C0.33 0 0.66 0 1 0 C2.27414816 4.8943469 2.14757083 9.73175245 2.125 14.75 C2.12886719 15.62527344 2.13273437 16.50054687 2.13671875 17.40234375 C2.13542969 18.23378906 2.13414062 19.06523438 2.1328125 19.921875 C2.13168457 20.68081055 2.13055664 21.43974609 2.12939453 22.22167969 C2 24 2 24 1 25 C-0.49738124 25.0979057 -1.99942892 25.12974864 -3.5 25.125 C-4.3146875 25.12757812 -5.129375 25.13015625 -5.96875 25.1328125 C-8 25 -8 25 -9 24 C-9.08669432 22.5112814 -9.10703494 21.018555 -9.09765625 19.52734375 C-9.09443359 18.62822266 -9.09121094 17.72910156 -9.08789062 16.80273438 C-9.07951172 15.85720703 -9.07113281 14.91167969 -9.0625 13.9375 C-9.05798828 12.98810547 -9.05347656 12.03871094 -9.04882812 11.06054688 C-9.0370011 8.70696935 -9.02052025 6.35351523 -9 4 C-8.67 4 -8.34 4 -8 4 C-8 10.27 -8 16.54 -8 23 C-5.36 23 -2.72 23 0 23 C0 15.41 0 7.82 0 0 Z " fill="#838390" transform="translate(269,43)" /><path d="M0 0 C1.22625047 2.45250093 1.03425355 3.84310435 0.87890625 6.5703125 C0.83056641 7.46621094 0.78222656 8.36210938 0.73242188 9.28515625 C0.67634766 10.22230469 0.62027344 11.15945312 0.5625 12.125 C0.51029297 13.06988281 0.45808594 14.01476563 0.40429688 14.98828125 C0.27443239 17.3258419 0.1394613 19.66299545 0 22 C-1.64574566 22.02688151 -3.29161413 22.04634123 -4.9375 22.0625 C-5.85402344 22.07410156 -6.77054688 22.08570312 -7.71484375 22.09765625 C-10 22 -10 22 -11 21 C-11.08669432 19.5112814 -11.10703494 18.018555 -11.09765625 16.52734375 C-11.09443359 15.62822266 -11.09121094 14.72910156 -11.08789062 13.80273438 C-11.07951172 12.85720703 -11.07113281 11.91167969 -11.0625 10.9375 C-11.05798828 9.98810547 -11.05347656 9.03871094 -11.04882812 8.06054688 C-11.0370011 5.70696935 -11.02052025 3.35351523 -11 1 C-9 3 -9 3 -8.8046875 6.9140625 C-8.81799624 8.48449351 -8.84186398 10.05486221 -8.875 11.625 C-8.88402344 12.42679688 -8.89304688 13.22859375 -8.90234375 14.0546875 C-8.92593777 16.03658523 -8.96180935 18.01832981 -9 20 C-6.36 20 -3.72 20 -1 20 C-1.00523682 19.42967041 -1.01047363 18.85934082 -1.01586914 18.27172852 C-1.03658221 15.70199677 -1.0496419 13.13228253 -1.0625 10.5625 C-1.07087891 9.66466797 -1.07925781 8.76683594 -1.08789062 7.84179688 C-1.09111328 6.98779297 -1.09433594 6.13378906 -1.09765625 5.25390625 C-1.10289307 4.46314697 -1.10812988 3.6723877 -1.11352539 2.85766602 C-1 1 -1 1 0 0 Z " fill="#696977" transform="translate(250,46)" /><path d="M0 0 C-1.15173355 2.46800047 -2.04783565 4.04783565 -4 6 C-4.46006346 8.20250992 -4.46006346 8.20250992 -4.625 10.625 C-4.69976563 11.44226562 -4.77453125 12.25953125 -4.8515625 13.1015625 C-4.92503906 14.04128906 -4.92503906 14.04128906 -5 15 C-5.33 15 -5.66 15 -6 15 C-6.62608696 6.04347826 -6.62608696 6.04347826 -4.125 1.875 C-2 0 -2 0 0 0 Z " fill="#9D7A4B" transform="translate(22,17)" /><path d="M0 0 C0.66 0.33 1.32 0.66 2 1 C1.07038578 2.15224028 0.1309875 3.29659176 -0.8125 4.4375 C-1.59560547 5.39462891 -1.59560547 5.39462891 -2.39453125 6.37109375 C-4 8 -4 8 -7 9 C-5.44499019 5.18315774 -2.96404505 2.80804268 0 0 Z " fill="#91929B" transform="translate(11,4)" /></svg>